<?xml version="1.0" encoding="UTF-8"?>
<!-- Generated by Pixelmator Pro 3.6.15 -->
<svg width="1249" height="833" viewBox="0 0 1249 833" xmlns="http://www.w3.org/2000/svg">
    <g id="Group">
        <path id="Path" fill="#000000" stroke="none" d="M 330 303.133362 C 297.466675 309.533325 263.733337 340.866669 242.53334 384.333344 C 225.46666 419.266663 213.866669 465.799988 211.199997 509.266663 C 210.53334 520.333374 209.866669 523.666626 208.399994 523.666626 C 207.333328 523.666626 202.266663 522.733337 197.066666 521.533325 C 190 519.93335 186.399994 518.200012 182.53334 514.733337 C 177.46666 510.200012 177.199997 510.066681 174 512.200012 C 170.800003 514.333374 170.800003 514.599976 172.800003 517.666626 C 175.733337 522.06665 184 525.799988 197.46666 528.466675 L 208.933334 530.866699 L 209.866669 550.06665 C 210.933334 571.799988 214.399994 594.599976 219.46666 612.06665 C 226.666672 637.533325 239.866669 661.666687 248.666672 665.93335 C 253.066666 668.06665 253.46666 667.93335 256 665.666687 C 259.733337 662.333313 259.066681 657.533325 254.933334 657.93335 C 249.733337 658.599976 239.866669 642.599976 232.266663 620.866699 C 224.399994 598.599976 218.666672 565 218.666672 541.266663 L 218.666672 532.599976 L 225.066666 533.533325 C 280 540.733337 316.133331 536.599976 347.733337 519.533325 C 393.600006 494.866669 419.866669 444.600006 413.333344 393.533325 C 408.266663 353.133331 390.133331 320.200012 366.266663 308.06665 C 360.533325 305.266663 344.533325 300.866638 340.666656 301.133362 C 340 301.266663 335.200012 302.06665 330 303.133362 Z M 357.866669 312.866638 C 362.399994 314.866638 368.533325 318.866638 371.600006 321.533325 C 383.600006 331.933319 395.466675 355 401.733337 379.399994 C 404 388.733337 404.533325 394.866669 404.533325 411 C 404.533325 434.200012 403.066681 441.533325 393.866669 460.866669 C 374.799988 501.399994 341.466675 524.599976 294 530.333374 C 279.600006 532.06665 263.200012 531.533325 236 528.200012 C 226.933334 527.133301 219.333328 526.06665 219.199997 525.93335 C 219.066666 525.799988 219.46666 518.466675 220.133331 509.666656 C 226.266663 432.333344 246.666672 376.866669 283.200012 338.733337 C 310.799988 309.799988 334.266663 301.666687 357.866669 312.866638 Z"/>
        <path id="path1" fill="#000000" stroke="none" d="M 709.466675 313.533325 C 707.466675 315.666687 705.866638 320.200012 704.400024 327.799988 C 703.200012 333.933319 700.93335 345.133331 699.466675 352.733337 L 696.666687 366.466675 L 677.333313 374.200012 C 610.799988 400.866669 570.93335 430.466675 550.666687 467.933319 C 541.866638 484.200012 539.466675 501.133331 542.799988 522.599976 C 544.266663 531.93335 544.266663 531.93335 540.533325 535.799988 C 534.93335 541.666626 524 546.599976 517.866638 546.06665 C 512.93335 545.666626 512.533325 545.400024 509.600006 537.799988 C 507.866669 533.400024 505.733337 525.93335 504.799988 521.133301 C 503.200012 512.733337 503.333344 511.933319 507.066681 502.333344 C 512.133362 489 519.333313 460.600006 521.333313 445.666656 C 522.266663 439 522.666687 427.399994 522.533325 419.933319 C 522 406.200012 522 406.066681 517.599976 402.200012 C 515.06665 399.933319 512.400024 398.466675 511.600006 398.733337 C 508 399.933319 505.066681 407 501.200012 423.666656 C 497.466675 440.200012 497.066681 444.466675 496.133331 475.666656 C 495.333344 505.933319 494.933319 510.333344 492.399994 515.666626 C 489.733337 521.533325 483.466675 529 481.200012 529 C 479.733337 529 479.466675 523.799988 479.866669 511 C 480.133331 503.133331 479.733337 501.133331 477.333344 497.933319 C 475.733337 495.933319 473.733337 494.333344 472.799988 494.333344 C 471.866669 494.333344 469.600006 500.333344 467.333344 508.600006 C 461.066681 531.533325 454.666656 535.533325 453.600006 517.266663 C 453.200012 510.066681 452.533325 507.933319 450.266663 506.066681 C 446.666656 503.133331 445.333344 503.133331 445.333344 505.666656 C 445.333344 509.399994 437.333344 528.599976 434.799988 530.866699 C 432.533325 532.866699 432.266663 533 431.466675 531 C 431.066681 529.799988 430.666656 527.133301 430.666656 525.266663 C 430.666656 521 426.266663 513.266663 423.200012 512.06665 C 420 510.866669 418.799988 513 416.133331 524.200012 C 414.799988 529.799988 413.333344 534.733337 412.933319 535.133301 C 411.200012 536.866699 413.733337 510.333344 416.266663 500.333344 C 419.066681 489 422 482.866669 425.066681 481.666656 C 427.733337 480.600006 427.866669 480.733337 430.133331 491.799988 C 432 501.133331 434.799988 506.333344 437.733337 506.333344 C 439.200012 506.333344 438.133331 498.066681 435.600006 489.799988 C 433.733337 483.399994 425.466675 474.333344 421.600006 474.333344 C 412.533325 474.333344 405.466675 498.200012 405.333344 529.133301 C 405.333344 541.799988 405.333344 541.799988 409.733337 546.06665 C 412.133331 548.466675 414.933319 550.333374 415.733337 550.333374 C 417.866669 550.333374 420.533325 543.93335 422.666656 533.799988 L 424.266663 526.06665 L 426.666656 530.06665 C 432.799988 540.200012 440.399994 540.733337 445.200012 531.533325 L 448.533325 525.400024 L 453.333344 530.466675 C 461.333344 538.866699 468.666656 537 471.466675 525.799988 L 472.266663 522.333374 L 477.600006 528.333374 C 485.333344 537.133301 490.533325 536.599976 497.600006 526.333374 C 499.466675 523.533325 499.866669 523.400024 499.866669 525.533325 C 500 528.866699 506.133331 540.866699 509.733337 544.866699 C 511.333344 546.599976 515.200012 549.133301 518.400024 550.599976 C 525.599976 553.799988 532.133362 553 540.666687 547.533325 C 544 545.400024 546.93335 543.666626 547.333313 543.666626 C 547.599976 543.666626 548.799988 546.866699 550.133362 550.599976 C 555.333313 566.733337 569.06665 590.866699 588.400024 618.06665 C 606.266663 643.133301 620.93335 654.333313 635.599976 654.333313 C 647.06665 654.333313 652.93335 649.93335 659.866638 635.93335 C 668.133362 619.533325 679.866638 557.133301 688.666687 482.333344 C 691.733337 456.066681 698.666687 409.266663 703.200012 383.133331 C 704.133362 377.399994 705.866638 372.200012 706.799988 371.533325 C 707.733337 371 708.799988 370.600006 708.93335 370.866669 C 709.06665 371 709.866638 404.200012 710.533325 444.466675 C 712 523.666626 712.799988 533.533325 718.133362 535.93335 C 719.866638 536.733337 721.733337 537.133301 722.133362 536.599976 C 722.533325 536.200012 722.266663 531.533325 721.466675 526.06665 C 720.533325 520.06665 719.866638 487.799988 719.599976 441.666656 L 719.333313 367 L 733.333313 363.399994 C 759.599976 356.466675 782.666687 352.600006 787.599976 354.066681 C 791.06665 355.133331 792 355 792 353.666656 C 792 350.866669 783.466675 347.666656 775.733337 347.666656 C 770.133362 347.666656 731.866638 355.666656 720.799988 359.133331 C 718.400024 359.933319 718.266663 359.399994 719.333313 342.200012 C 720.93335 316.333313 720.93335 315.666687 717.200012 312.866638 C 713.06665 309.666687 713.06665 309.666687 709.466675 313.533325 Z M 708.666687 362.200012 C 706.133362 364.600006 706.133362 365.266663 708.93335 351 L 710 345.666656 L 710.400024 352.866669 C 710.666687 358.200012 710.266663 360.600006 708.666687 362.200012 Z M 695.599976 376.600006 C 694.266663 378.866669 684.93335 440.733337 679.866638 481.399994 C 666.266663 591.533325 656.799988 631.799988 641.599976 645.133301 C 637.333313 648.866699 636.266663 649.266663 630 648.733337 C 620.266663 647.93335 612.799988 642.333313 600 625.666687 C 579.866638 599.666687 563.333313 570.333374 556.400024 547.93335 L 552.93335 536.866699 L 556.266663 533.266663 C 561.200012 527.799988 568 518.06665 568 516.200012 C 568 514.733337 561.466675 509.533325 560.799988 510.600006 C 560.666687 510.866669 558.400024 514.200012 556 518.200012 L 551.466675 525.533325 L 550.266663 520.200012 C 548.400024 511.799988 550 493.266663 553.333313 484.333344 C 559.866638 467.133331 575.200012 446.466675 592 431.933319 C 612.666687 414.200012 646.799988 394.733337 680.666687 381 C 694.266663 375.533325 696.666687 374.866669 695.599976 376.600006 Z M 514.666687 433.666656 C 513.200012 449.399994 506.799988 479.933319 503.866669 485 C 502.399994 487.666656 502.399994 481.799988 504 460.333344 C 505.200012 444.733337 511.600006 412.733337 514.400024 408.466675 C 516.133362 405.799988 516.266663 416.066681 514.666687 433.666656 Z"/>
        <path id="path2" fill="#000000" stroke="none" d="M 991.733337 409.133331 C 988.799988 410.733337 986.93335 417.533325 985.866638 431.133331 L 984.93335 441.933319 L 967.200012 445 C 957.333313 446.600006 949.333313 448.466675 949.333313 449 C 949.333313 449.399994 950.666687 451.133331 952.400024 452.600006 C 955.333313 455.399994 955.333313 455.399994 967.333313 452.866669 C 986.666687 448.866669 985.333313 448.066681 985.333313 463.533325 C 985.333313 478.200012 983.333313 489.799988 977.333313 509 C 971.866638 526.866699 966.666687 531.400024 962.133362 522.466675 C 959.466675 517.533325 959.06665 512.333374 961.06665 510.066681 C 963.466675 507.133331 960.666687 495.399994 956.400024 490.333344 C 953.866638 487.266663 952 486.333344 948.400024 486.333344 C 940.133362 486.333344 934.400024 495.399994 931.466675 513.133301 C 930.799988 516.466675 929.599976 518.333374 927.333313 519.400024 C 924.533325 520.733337 924 520.466675 923.200012 517.93335 C 922.666687 516.333374 920.400024 510.733337 918 505.666656 C 915.599976 500.466675 913.333313 495.266663 912.93335 493.933319 C 910.799988 487.933319 899.599976 495.133331 894.133362 505.933319 C 891.733337 510.733337 878.93335 517.799988 870.133362 519.266663 C 865.06665 520.06665 864.93335 519.93335 865.866638 516.866699 C 871.333313 497.533325 871.333313 493.533325 866 492.200012 C 860.533325 490.866669 858.133362 492.200012 854.93335 498.333344 C 852.533325 503.133331 852 505.666656 852.533325 511 C 853.06665 514.599976 853.333313 519 853.466675 520.733337 C 853.599976 524.733337 846.666687 536.200012 843.733337 536.733337 C 839.333313 537.533325 838.666687 532.733337 839.866638 512.06665 C 840.666687 501.266663 841.333313 477.933319 841.599976 460.333344 C 842 429.133331 841.866638 428.333344 839.333313 427.933319 C 833.06665 427.133331 832.93335 427.533325 831.866638 472.600006 C 831.333313 495.933319 830.400024 518.333374 829.866638 522.466675 C 828.133362 536.733337 833.599976 544.733337 844.133362 543.266663 C 850.400024 542.466675 853.599976 539.93335 858.93335 531.666626 C 862.533325 525.93335 862.93335 525.666626 869.733337 525.533325 C 873.599976 525.533325 879.333313 524.200012 882.799988 522.733337 C 888.799988 520.06665 888.93335 520.06665 890.400024 522.466675 C 894.266663 528.466675 905.333313 522.200012 907.333313 512.866699 C 908.533325 507.666656 909.866638 509 913.333313 519 L 916.133362 527 L 911.599976 531 C 894.799988 545.533325 884.533325 570.866699 888 589 C 889.599976 597.533325 891.06665 600.466675 897.06665 606.599976 C 909.200012 619.400024 926 615.400024 934.666687 597.799988 C 942.133362 582.733337 941.200012 565.400024 931.466675 539.400024 C 928 530.333374 927.466675 527.666626 928.93335 527.133301 C 930 526.599976 930.666687 527.533325 930.666687 529.533325 C 930.666687 531.266663 931.866638 534.200012 933.466675 536.200012 C 938.400024 542.599976 945.599976 539.799988 950.533325 529.799988 C 952.93335 524.733337 953.06665 524.599976 954.533325 527.400024 C 955.333313 529 957.866638 531.266663 960 532.333374 C 969.200012 537.133301 977.333313 533 982.799988 520.733337 L 986 513.666626 L 986.266663 519 C 988.266663 549.533325 994.400024 565 1004.666687 565 C 1015.599976 565 1024 549.93335 1028.533325 522.200012 C 1029.333374 517.666626 1029.866699 517.266663 1035.06665 516.466675 C 1047.599976 514.466675 1110.800049 494.200012 1114.133301 490.866669 C 1115.333374 489.799988 1115.06665 489.133331 1113.333374 487.933319 C 1110.400024 486.066681 1108.93335 486.466675 1071.333374 499 C 1055.199951 504.333344 1039.466675 509.133331 1036.400024 509.666656 L 1030.666626 510.600006 L 1030.666626 503.399994 C 1030.666626 494.600006 1027.866699 490.066681 1023.06665 490.600006 C 1018.400024 491.133331 1014.533325 496.733337 1013.733337 503.933319 C 1013.06665 509.266663 1013.466675 510.200012 1016.666687 512.733337 L 1020.266663 515.666626 L 1017.466675 529.799988 C 1014.666687 543.799988 1009.06665 558.333374 1006.533325 558.333374 C 997.733337 558.333374 991.466675 498.600006 996.666687 464.200012 C 997.733337 457 998.666687 450.333344 998.666687 449.533325 C 998.666687 448.600006 1002.400024 447.666656 1007.733337 447.133331 C 1012.666687 446.600006 1027.733276 445 1041.333374 443.666656 C 1054.93335 442.200012 1069.199951 440.866669 1073.06665 440.733337 C 1080 440.333344 1080 440.333344 1078 437.266663 C 1076.133301 434.600006 1074.800049 434.333344 1065.599976 434.466675 C 1060 434.466675 1042.800049 435.799988 1027.466675 437.533325 L 999.733337 440.466675 L 1000.666687 426.200012 C 1001.466675 412.333344 1001.466675 411.933319 998.533325 409.799988 C 994.93335 407.266663 994.799988 407.266663 991.733337 409.133331 Z M 951.200012 499.799988 C 952.133362 503.933319 951.866638 505 949.06665 507.799988 C 946.93335 509.933319 945.200012 513.93335 944.133362 519.266663 C 942.133362 529.400024 940 531.400024 940 523.133301 C 940 511.533325 945.200012 493.666656 948.400024 494.733337 C 949.333313 495 950.533325 497.266663 951.200012 499.799988 Z M 926.133362 552.466675 C 931.200012 569.266663 931.333313 585.666687 926.666687 594.866699 C 923.333313 601.533325 919.200012 605.400024 913.733337 607 C 911.599976 607.533325 909.466675 606.599976 905.466675 603 C 898.533325 596.733337 896.93335 591.400024 897.599976 577.133301 C 898.133362 567.93335 898.93335 564.200012 902 558.333374 C 906 550.466675 910.400024 543.93335 915.866638 537.93335 L 919.200012 534.333374 L 920.93335 537.533325 C 921.866638 539.266663 924.133362 546.06665 926.133362 552.466675 Z"/>
        <path id="path3" fill="#000000" stroke="none" d="M 724 471 C 724 471.266663 724.666687 473 725.599976 474.866669 C 726.666687 477.266663 728.400024 478.466675 731.866638 479 C 742.133362 480.600006 752.93335 484.066681 759.466675 487.666656 C 768.93335 493.133331 770.93335 495.666656 770.400024 501.799988 C 769.866638 507.799988 766.93335 509.799988 755.733337 511.666656 C 751.866638 512.200012 747.733337 513 746.666687 513.266663 C 744.533325 513.666626 744.266663 510.866669 745.866638 504.733337 C 746.666687 501.933319 746.266663 500.866669 744 499.666656 C 741.599976 498.333344 740.666687 498.466675 738.799988 500.200012 C 737.06665 502.066681 736.533325 507 736 531.400024 C 735.200012 559.400024 735.866638 566.06665 739.200012 566.466675 C 744 567 747.466675 564.333374 745.466675 561.666626 C 744.93335 561 744.666687 552.733337 745.06665 543.533325 L 745.599976 526.599976 L 749.333313 527.666626 C 755.06665 529.266663 763.333313 526.599976 769.733337 521 C 774.666687 516.599976 783.599976 511.666656 786.666687 511.666656 C 787.200012 511.666656 787.333313 514.466675 787.06665 517.93335 C 785.599976 533.400024 790.666687 562.333374 794.799988 562.333374 C 796.799988 562.333374 797.333313 559.799988 798.799988 541.400024 L 800.400024 522.866699 L 803.599976 526.06665 C 805.866638 528.333374 807.599976 528.866699 809.733337 528.333374 C 818.799988 525.666626 824.400024 516.733337 824.400024 505 C 824.133362 488.066681 812.533325 479 800.400024 486.466675 C 798 487.933319 795.06665 491 793.866638 493.133331 C 791.866638 497.133331 784.400024 502.733337 779.06665 504.333344 C 776.533325 505 776 504.466675 774.799988 500.066681 C 771.733337 488.600006 757.200012 477.533325 739.200012 473 C 729.200012 470.466675 724 469.666656 724 471 Z M 818.400024 493.266663 C 824.533325 499.399994 813.866638 519.666626 804.533325 519.666626 L 800.266663 519.666626 L 799.733337 509.933319 C 799.200012 499.266663 800.400024 496.600006 807.333313 493.533325 C 812.400024 491.266663 816.400024 491.266663 818.400024 493.266663 Z M 793.466675 536.333374 L 792.266663 544.333374 L 792.133362 533 C 792.133362 526.733337 792.533325 519.266663 793.06665 516.333374 C 794 511.399994 794 511.533325 794.400024 519.666626 C 794.533325 524.466675 794.133362 531.93335 793.466675 536.333374 Z"/>
    </g>
</svg>
