<svg preserveAspectRatio="xMidYMid meet" viewBox="0 0 234.000000 156.000000" height="156.000000pt" width="234.000000pt" xmlns="http://www.w3.org/2000/svg" version="1.0">
<g stroke="none" fill="white" transform="translate(0.000000,136.000000) scale(0.090000,-0.090000)">
    <path d="M583 979 c-100 -50 -156 -158 -188 -362 -4 -24 -11 -37 -18 -34 -7 2
    -23 7 -37 11 -24 7 -24 6 -6 -8 11 -9 27 -16 37 -16 13 0 18 -13 23 -60 10
    -84 33 -155 61 -187 29 -33 33 -14 5 25 -22 30 -50 130 -50 177 l0 31 88 0
    c68 -1 97 3 132 20 129 60 181 205 119 329 -41 84 -98 109 -166 74z m117 -28
    c38 -37 64 -129 56 -190 -10 -71 -52 -130 -115 -163 -50 -26 -63 -28 -140 -26
    l-86 3 3 55 c6 108 43 214 99 280 62 75 134 91 183 41z"></path>
    <path d="M1327 973 c-3 -5 -8 -27 -12 -51 -7 -41 -8 -43 -89 -82 -142 -67
    -231 -170 -212 -246 13 -51 -46 -77 -64 -28 -7 18 -5 39 7 77 20 61 24 158 6
    164 -17 6 -33 -61 -33 -138 0 -42 -5 -72 -15 -85 -14 -18 -14 -17 -15 14 0 17
    -4 32 -9 32 -5 0 -15 -15 -22 -32 -11 -30 -13 -31 -16 -10 -3 12 -8 22 -13 22
    -4 0 -11 -10 -14 -22 -6 -21 -7 -21 -17 -5 -13 22 -29 22 -29 0 0 -9 -3 -14
    -6 -11 -3 3 0 26 7 49 l12 44 13 -30 c11 -25 13 -26 14 -9 0 28 -27 51 -42 36
    -16 -16 -23 -118 -8 -127 7 -4 13 1 17 14 5 18 8 19 21 9 12 -10 16 -10 19 -1
    3 8 14 11 29 7 16 -4 24 -2 24 6 0 10 3 10 15 0 8 -6 19 -9 25 -5 5 3 20 -6
    33 -21 21 -23 26 -25 46 -15 12 7 23 11 24 9 56 -111 103 -180 138 -198 27
    -15 57 -4 73 29 18 33 40 150 62 325 23 185 33 195 34 36 1 -199 14 -213 20
    -20 l5 165 54 12 c30 6 59 9 63 7 4 -3 8 0 8 7 0 12 -53 8 -107 -7 -21 -6 -23
    -3 -23 34 0 38 -13 62 -23 45z m-31 -155 c-3 -18 -13 -85 -21 -148 -33 -255
    -52 -320 -90 -320 -29 0 -59 31 -105 106 -33 56 -41 93 -25 129 8 18 7 19 -8
    6 -30 -24 -22 48 11 100 33 51 73 84 157 127 79 41 89 41 81 0z m-332 -75
    c-10 -69 -26 -101 -19 -38 7 56 14 85 21 85 3 0 2 -21 -2 -47z"></path>
    <path d="M1856 793 c-3 -3 -6 -17 -6 -30 0 -14 -7 -26 -17 -29 -10 -3 -27 -10
    -38 -15 -16 -7 -13 -8 15 -6 35 2 35 2 33 -38 -4 -51 -23 -109 -33 -98 -5 4
    -10 21 -12 38 -4 43 -33 45 -47 3 -11 -31 -13 -32 -26 -14 -8 10 -16 24 -18
    30 -2 6 -16 -1 -30 -16 -34 -36 -56 -37 -49 -2 4 20 1 25 -9 22 -8 -3 -16 -20
    -19 -38 -3 -18 -11 -35 -18 -38 -9 -3 -11 18 -6 97 5 68 4 101 -4 101 -10 0
    -22 -181 -14 -207 6 -17 27 -16 42 2 7 8 28 17 49 21 20 4 42 11 49 17 22 17
    14 -19 -13 -59 -29 -42 -31 -70 -9 -102 35 -50 91 -4 81 66 -3 20 -8 46 -12
    57 -5 15 -4 17 3 6 8 -12 14 -12 25 -3 8 7 22 9 31 6 11 -4 22 1 31 12 13 18
    14 17 15 -12 0 -16 6 -39 14 -49 14 -19 15 -19 34 -2 11 10 22 30 25 46 5 24
    15 30 82 51 42 13 78 28 81 32 8 12 -8 10 -71 -12 -70 -24 -85 -25 -85 -4 0 9
    -6 14 -12 11 -8 -2 -12 -17 -11 -35 4 -43 -14 -89 -29 -74 -12 12 -18 175 -7
    187 4 3 39 9 78 12 39 3 71 10 71 15 0 5 -33 6 -76 2 l-77 -7 7 26 c6 25 -5
    43 -18 30z m-81 -193 c-4 -12 -9 -19 -12 -17 -3 3 -2 15 2 27 4 12 9 19 12 17
    3 -3 2 -15 -2 -27z m-41 -72 c18 -67 -6 -126 -39 -98 -19 16 -19 53 0 90 19
    36 31 38 39 8z"></path>
    <path d="M1360 671 c0 -5 12 -11 28 -14 15 -4 33 -11 41 -16 19 -13 6 -41 -19
    -41 -12 0 -18 5 -15 10 3 6 1 10 -4 10 -7 0 -11 -24 -11 -60 0 -33 4 -60 9
    -60 5 0 8 16 7 35 -1 23 3 35 12 35 7 0 23 7 36 15 23 16 24 15 30 -30 4 -25
    11 -45 17 -45 5 0 8 3 8 8 -5 27 4 50 19 55 27 6 33 43 13 69 l-18 22 -19 -22
    c-19 -23 -44 -29 -44 -12 0 12 -59 50 -77 50 -7 0 -13 -4 -13 -9z m168 -53
    c-4 -27 -28 -36 -28 -10 0 20 8 32 22 32 5 0 8 -10 6 -22z"></path>
    </g>
    </svg>