<svg preserveAspectRatio="xMidYMid meet" viewBox="0 0 937.000000 625.000000" height="625.000000pt" width="937.000000pt" xmlns="http://www.w3.org/2000/svg" version="1.0">

<g stroke="none" fill="#000000" transform="translate(0.000000,625.000000) scale(0.100000,-0.100000)">
<path d="M2475 3974 c-244 -48 -497 -283 -656 -609 -128 -262 -215 -611 -235
-937 -5 -83 -10 -108 -21 -108 -8 0 -46 7 -85 16 -53 12 -80 25 -109 51 -38
34 -40 35 -64 19 -24 -16 -24 -18 -9 -41 22 -33 84 -61 185 -81 l86 -18 7
-144 c8 -163 34 -334 72 -465 54 -191 153 -372 219 -404 33 -16 36 -15 55 2
28 25 23 61 -8 58 -39 -5 -113 115 -170 278 -59 167 -102 419 -102 597 l0 65
48 -7 c412 -54 683 -23 920 105 344 185 541 562 492 945 -38 303 -174 550
-353 641 -43 21 -163 54 -192 52 -5 -1 -41 -7 -80 -15z m209 -73 c34 -15 80
-45 103 -65 90 -78 179 -251 226 -434 17 -70 21 -116 21 -237 0 -174 -11 -229
-80 -374 -143 -304 -393 -478 -749 -521 -108 -13 -231 -9 -435 16 -68 8 -125
16 -126 17 -1 1 2 56 7 122 46 580 199 996 473 1282 207 217 383 278 560 194z"></path>
<path d="M5321 3896 c-15 -16 -27 -50 -38 -107 -9 -46 -26 -130 -37 -187 l-21
-103 -145 -58 c-499 -200 -798 -422 -950 -703 -66 -122 -84 -249 -59 -410 11
-70 11 -70 -17 -99 -42 -44 -124 -81 -170 -77 -37 3 -40 5 -62 62 -13 33 -29
89 -36 125 -12 63 -11 69 17 141 38 100 92 313 107 425 7 50 10 137 9 193 -4
103 -4 104 -37 133 -19 17 -39 28 -45 26 -27 -9 -49 -62 -78 -187 -28 -124
-31 -156 -38 -390 -6 -227 -9 -260 -28 -300 -20 -44 -67 -100 -84 -100 -11 0
-13 39 -10 135 2 59 -1 74 -19 98 -12 15 -27 27 -34 27 -7 0 -24 -45 -41 -107
-47 -172 -95 -202 -103 -65 -3 54 -8 70 -25 84 -27 22 -37 22 -37 3 0 -28 -60
-172 -79 -189 -17 -15 -19 -16 -25 -1 -3 9 -6 29 -6 43 0 32 -33 90 -56 99
-24 9 -33 -7 -53 -91 -10 -42 -21 -79 -24 -82 -13 -13 6 186 25 261 21 85 43
131 66 140 20 8 21 7 38 -76 14 -70 35 -109 57 -109 11 0 3 62 -16 124 -14 48
-76 116 -105 116 -68 0 -121 -179 -122 -411 0 -95 0 -95 33 -127 18 -18 39
-32 45 -32 16 0 36 48 52 124 l12 58 18 -30 c46 -76 103 -80 139 -11 l25 46
36 -38 c60 -63 115 -49 136 35 l6 26 40 -45 c58 -66 97 -62 150 15 14 21 17
22 17 6 1 -25 47 -115 74 -145 12 -13 41 -32 65 -43 54 -24 103 -18 167 23 25
16 47 29 50 29 2 0 11 -24 21 -52 39 -121 142 -302 287 -506 134 -188 244
-272 354 -272 86 0 130 33 182 138 62 123 150 591 216 1152 23 197 75 548 109
744 7 43 20 82 27 87 7 4 15 7 16 5 1 -1 7 -250 12 -552 11 -594 17 -668 57
-686 13 -6 27 -9 30 -5 3 3 1 38 -5 79 -7 45 -12 287 -14 633 l-2 560 105 27
c197 52 370 81 407 70 26 -8 33 -7 33 3 0 21 -64 45 -122 45 -42 0 -329 -60
-412 -86 -18 -6 -19 -2 -11 127 12 194 12 199 -16 220 -31 24 -31 24 -58 -5z
m-6 -365 c-19 -18 -19 -23 2 84 l8 40 3 -54 c2 -40 -1 -58 -13 -70z m-98 -108
c-10 -17 -80 -481 -118 -786 -102 -826 -173 -1128 -287 -1228 -32 -28 -40 -31
-87 -27 -73 6 -129 48 -225 173 -151 195 -275 415 -327 583 l-26 83 25 27 c37
41 88 114 88 128 0 11 -49 50 -54 42 -1 -2 -18 -27 -36 -57 l-34 -55 -9 40
c-14 63 -2 202 23 269 49 129 164 284 290 393 155 133 411 279 665 382 102 41
120 46 112 33z m-1357 -428 c-11 -118 -59 -347 -81 -385 -11 -20 -11 24 1 185
9 117 57 357 78 389 13 20 14 -57 2 -189z"></path>
<path d="M7438 3179 c-22 -12 -36 -63 -44 -165 l-7 -81 -133 -23 c-74 -12
-134 -26 -134 -30 0 -3 10 -16 23 -27 22 -21 22 -21 112 -2 145 30 135 36 135
-80 0 -110 -15 -197 -60 -341 -41 -134 -80 -168 -114 -101 -20 37 -23 76 -8
93 18 22 -3 110 -35 148 -19 23 -33 30 -60 30 -62 0 -105 -68 -127 -201 -5
-25 -14 -39 -31 -47 -21 -10 -25 -8 -31 11 -4 12 -21 54 -39 92 -18 39 -35 78
-38 88 -16 45 -100 -9 -141 -90 -18 -36 -114 -89 -180 -100 -38 -6 -39 -5 -32
18 41 145 41 175 1 185 -41 10 -59 0 -83 -46 -18 -36 -22 -55 -18 -95 4 -27 6
-60 7 -73 1 -30 -51 -116 -73 -120 -33 -6 -38 30 -29 185 6 81 11 256 13 388
3 234 2 240 -17 243 -47 6 -48 3 -56 -335 -4 -175 -11 -343 -15 -374 -13 -107
28 -167 107 -156 47 6 71 25 111 87 27 43 30 45 81 46 29 0 72 10 98 21 45 20
46 20 57 2 29 -45 112 2 127 72 9 39 19 29 45 -46 l21 -60 -34 -30 c-126 -109
-203 -299 -177 -435 12 -64 23 -86 68 -132 91 -96 217 -66 282 66 56 113 49
243 -24 438 -26 68 -30 88 -19 92 8 4 13 -3 13 -18 0 -13 9 -35 21 -50 37 -48
91 -27 128 48 18 38 19 39 30 18 6 -12 25 -29 41 -37 69 -36 130 -5 171 87
l24 53 2 -40 c15 -229 61 -345 138 -345 82 0 145 113 179 321 6 34 10 37 49
43 94 15 568 167 593 192 9 8 7 13 -6 22 -22 14 -33 11 -315 -83 -121 -40
-239 -76 -262 -80 l-43 -7 0 54 c0 66 -21 100 -57 96 -35 -4 -64 -46 -70 -100
-5 -40 -2 -47 22 -66 l27 -22 -21 -106 c-21 -105 -63 -214 -82 -214 -66 0
-113 448 -74 706 8 54 15 104 15 110 0 7 28 14 68 18 37 4 150 16 252 26 102
11 209 21 238 22 52 3 52 3 37 26 -14 20 -24 22 -93 21 -42 0 -171 -10 -286
-23 l-208 -22 7 107 c6 104 6 107 -16 123 -27 19 -28 19 -51 5z m-304 -680 c7
-31 5 -39 -16 -60 -16 -16 -29 -46 -37 -86 -15 -76 -31 -91 -31 -29 0 87 39
221 63 213 7 -2 16 -19 21 -38z m-188 -395 c38 -126 39 -249 4 -318 -25 -50
-56 -79 -97 -91 -16 -4 -32 3 -62 30 -52 47 -64 87 -59 194 4 69 10 97 33 141
30 59 63 108 104 153 l25 27 13 -24 c7 -13 24 -64 39 -112z"></path>
<path d="M5430 2715 c0 -2 5 -15 12 -29 8 -18 21 -27 47 -31 77 -12 158 -38
207 -65 71 -41 86 -60 82 -106 -4 -45 -26 -60 -110 -74 -29 -4 -60 -10 -68
-12 -16 -3 -18 18 -6 64 6 21 3 29 -14 38 -18 10 -25 9 -39 -4 -13 -14 -17
-51 -21 -234 -6 -210 -1 -260 24 -263 36 -4 62 16 47 36 -4 5 -6 67 -3 136 l4
127 28 -8 c43 -12 105 8 153 50 37 33 104 70 127 70 4 0 5 -21 3 -47 -11 -116
27 -333 58 -333 15 0 19 19 30 157 l12 139 24 -24 c17 -17 30 -21 46 -17 68
20 110 87 110 175 -2 127 -89 195 -180 139 -18 -11 -40 -34 -49 -50 -15 -30
-71 -72 -111 -84 -19 -5 -23 -1 -32 32 -23 86 -132 169 -267 203 -75 19 -114
25 -114 15z m708 -167 c46 -46 -34 -198 -104 -198 l-32 0 -4 73 c-4 80 5 100
57 123 38 17 68 17 83 2z m-187 -323 l-9 -60 -1 85 c0 47 3 103 7 125 7 37 7
36 10 -25 1 -36 -2 -92 -7 -125z"></path>
</g>
</svg>
